<svg xmlns="http://www.w3.org/2000/svg"><style>:root svg:not(:target){display:none}</style><svg id="arrow-left" width="14" height="11" viewBox="0 0 14 11"><path fill-rule="evenodd" clip-rule="evenodd" d="M6.612.298A.821.821 0 0 0 5.427.214L.288 4.845A.881.881 0 0 0 0 5.5c0 .251.105.49.288.655l5.139 4.631a.82.82 0 0 0 1.185-.084.889.889 0 0 0-.081-1.225L3.08 6.368h10.08c.464 0 .84-.388.84-.868s-.376-.868-.84-.868H3.082L6.53 1.523A.889.889 0 0 0 6.612.298Z"/></svg><svg id="arrow-right" width="14" height="11" viewBox="0 0 14 11"><path fill-rule="evenodd" clip-rule="evenodd" d="M7.388.298A.821.821 0 0 1 8.573.214l5.139 4.631A.881.881 0 0 1 14 5.5c0 .251-.105.49-.288.655l-5.139 4.631a.821.821 0 0 1-1.185-.084.889.889 0 0 1 .081-1.225l3.45-3.109H.84C.376 6.368 0 5.98 0 5.5s.376-.868.84-.868h10.078L7.47 1.523A.889.889 0 0 1 7.388.298Z"/></svg><svg id="arrow-up" viewBox="0 0 13 18" fill="none"><path fill-rule="evenodd" clip-rule="evenodd" d="M.352 8.501a1.12 1.12 0 0 1-.1-1.524L5.727.37C5.921.135 6.203 0 6.5 0c.297 0 .579.135.774.37l5.473 6.607a1.12 1.12 0 0 1-.099 1.524.991.991 0 0 1-1.448-.104L7.526 3.962V16.92c0 .596-.46 1.08-1.026 1.08-.567 0-1.026-.483-1.026-1.08V3.962L1.8 8.397A.991.991 0 0 1 .352 8.5Z" fill="#74947A"/></svg><svg id="bus" viewBox="0 0 24 23" fill="none"><path d="M18 20.579H6v1.21c0 .321-.126.63-.351.856-.226.227-.53.355-.849.355H3.6c-.318 0-.623-.128-.849-.355a1.216 1.216 0 0 1-.351-.855v-1.211H1.2v-9.684H0V6.053h1.2V2.42c0-.642.253-1.258.703-1.712A2.39 2.39 0 0 1 3.6 0h16.8a2.39 2.39 0 0 1 1.697.71c.45.453.703 1.069.703 1.711v3.632H24v4.842h-1.2v9.684h-1.2v1.21A1.21 1.21 0 0 1 20.4 23h-1.2c-.318 0-.623-.128-.848-.355A1.216 1.216 0 0 1 18 21.79v-1.211ZM3.6 2.42v10.895h16.8V2.42H3.6Zm0 13.316v2.42h4.8v-2.42H3.6Zm12 0v2.42h4.8v-2.42h-4.8Z" fill="#fff"/></svg><svg id="calc" viewBox="0 0 17 20" fill="none"><path d="M15.454 0H1.545A1.538 1.538 0 0 0 0 1.539v16.924a1.547 1.547 0 0 0 1.545 1.538h13.91A1.538 1.538 0 0 0 17 18.463V1.538c0-.408-.163-.799-.453-1.087A1.549 1.549 0 0 0 15.454 0ZM4.636 16.923a1.163 1.163 0 0 1-1.07-.712 1.15 1.15 0 0 1 .25-1.258 1.16 1.16 0 0 1 1.98.816c0 .306-.123.6-.34.816a1.162 1.162 0 0 1-.82.338Zm0-3.846a1.163 1.163 0 0 1-1.07-.712 1.149 1.149 0 0 1 .25-1.258 1.16 1.16 0 0 1 1.98.816c0 .306-.123.6-.34.816a1.162 1.162 0 0 1-.82.338ZM8.5 16.923a1.163 1.163 0 0 1-1.07-.712 1.15 1.15 0 0 1 .25-1.258 1.16 1.16 0 0 1 1.98.816c0 .306-.123.6-.34.816a1.162 1.162 0 0 1-.82.338Zm0-3.846a1.163 1.163 0 0 1-1.07-.712 1.149 1.149 0 0 1 .25-1.258 1.16 1.16 0 0 1 1.98.816c0 .306-.123.6-.34.816a1.162 1.162 0 0 1-.82.338Zm3.864 3.846a1.163 1.163 0 0 1-1.071-.712 1.149 1.149 0 0 1 .251-1.258 1.161 1.161 0 0 1 1.979.816 1.162 1.162 0 0 1-1.16 1.154Zm0-3.846a1.163 1.163 0 0 1-1.071-.712 1.148 1.148 0 0 1 .251-1.258 1.16 1.16 0 0 1 1.979.816c0 .306-.122.6-.34.816a1.162 1.162 0 0 1-.82.338Zm1.545-5.385a.768.768 0 0 1-.773.77H3.864a.774.774 0 0 1-.773-.77V3.846a.767.767 0 0 1 .773-.77h9.272a.775.775 0 0 1 .773.77v3.846Z" fill="#fff"/></svg><svg id="call" viewBox="0 0 20 20" fill="none"><path d="m19.029 13.43-4.697-2.003a1.562 1.562 0 0 0-1.513.13l-2.514 1.673A7.662 7.662 0 0 1 6.78 9.725L8.443 7.18a1.592 1.592 0 0 0 .14-1.513L6.57.971A1.632 1.632 0 0 0 4.897.01 5.628 5.628 0 0 0 0 5.578C0 13.53 6.47 20 14.422 20a5.628 5.628 0 0 0 5.568-4.897 1.632 1.632 0 0 0-.961-1.673Z" fill="#fff"/><path d="M12.029 7.291a.09.09 0 0 0 .01.05v.03a.08.08 0 0 1 .01.04l.02.04c0 .01.01.02.01.04l.02.03c0 .01.01.02.01.04l.02.03.03.03.02.03a.08.08 0 0 0 .02.04c.01.01.03.02.04.04a.03.03 0 0 1 .01.02h.02l.04.04.04.02.03.03.03.021.03.02h.04l.03.02h.04l.04.02h4.237a.801.801 0 1 0 0-1.602h-2.073l3.445-3.436a.81.81 0 0 0-1.142-1.141l-3.435 3.505V3.175a.801.801 0 1 0-1.602 0V7.26a.042.042 0 0 1 .008.014l.002.016Z" fill="#fff"/></svg><svg id="car" viewBox="0 0 27 20" fill="none"><path d="M24.75 10.556v8.333c0 .295-.119.577-.33.786a1.132 1.132 0 0 1-.795.325H22.5c-.298 0-.584-.117-.796-.325a1.104 1.104 0 0 1-.329-.786v-1.111H5.625v1.11c0 .296-.119.578-.33.787A1.132 1.132 0 0 1 4.5 20H3.375c-.298 0-.585-.117-.796-.325a1.104 1.104 0 0 1-.329-.786v-8.333L.852 10.21a1.126 1.126 0 0 1-.614-.394A1.102 1.102 0 0 1 0 9.133v-.8c0-.147.06-.288.165-.393a.566.566 0 0 1 .397-.162h2.11l2.405-6.336c.16-.423.449-.789.825-1.046A2.27 2.27 0 0 1 7.184 0h12.632c.458 0 .905.138 1.282.396.376.257.664.623.825 1.046l2.405 6.336h2.11a.56.56 0 0 1 .397.163.552.552 0 0 1 .165.392v.8c0 .248-.084.489-.238.684-.154.195-.37.334-.614.394l-1.398.345ZM4.5 12.222v2.222c0 .295.119.578.33.786.21.208.497.326.795.326h3.65a.569.569 0 0 0 .483-.27.551.551 0 0 0 .013-.548c-.906-1.678-2.663-2.516-5.271-2.516Zm18 0c-2.607 0-4.364.84-5.272 2.516a.55.55 0 0 0 .219.745c.085.048.18.073.277.073h3.651c.298 0 .584-.117.796-.326.21-.208.329-.49.329-.786v-2.222Zm-15.75-10L4.994 7.427a1.098 1.098 0 0 0 .154 1 1.121 1.121 0 0 0 .912.462h14.88a1.136 1.136 0 0 0 .912-.462 1.104 1.104 0 0 0 .154-1L20.25 2.222H6.75Z" fill="#fff"/></svg><svg id="case" viewBox="0 0 18 18" fill="none" xmlns="http://www.w3.org/2000/svg"><path d="M17.095 10.589c-.027 2.838-.191 5.452-1.18 6.344C14.727 18 12.817 18 9 18s-5.728 0-6.914-1.067c-.99-.892-1.154-3.506-1.18-6.344l4.504 1.368a1.82 1.82 0 0 0 1.121 1.503l.63.256a4.894 4.894 0 0 0 3.678 0l.63-.256a1.82 1.82 0 0 0 1.12-1.503l4.506-1.368ZM10.8 9.342c.248 0 .45.204.45.456v1.97a.456.456 0 0 1-.283.422l-.63.256a3.56 3.56 0 0 1-2.674 0l-.63-.256a.456.456 0 0 1-.283-.422v-1.97c0-.252.202-.456.45-.456h3.6ZM10.296 0c.102 0 .182 0 .257.005.954.059 1.79.668 2.146 1.566.028.071.054.147.086.245l.002.01a1.486 1.486 0 0 0 .57.68c1.938.003 2.95.04 3.647.614.143.118.274.25.39.395.606.753.606 1.87.606 4.103 0 .567 0 .85-.136 1.071a.925.925 0 0 1-.09.123c-.17.194-.438.276-.973.439L12.6 10.526v-.728a1.812 1.812 0 0 0-1.8-1.823H7.2c-.994 0-1.8.816-1.8 1.823v.728L1.2 9.251c-.536-.163-.804-.245-.974-.44a.917.917 0 0 1-.09-.122C0 8.47 0 8.185 0 7.62c0-2.234 0-3.35.605-4.104.117-.145.248-.277.391-.395.698-.575 1.71-.61 3.648-.613.026-.019.054-.038.08-.059.242-.186.414-.418.489-.623.034-.104.059-.181.088-.254A2.478 2.478 0 0 1 7.705 0h2.59ZM7.529 1.37a1.126 1.126 0 0 0-.975.711c-.01.026-.022.06-.057.166l-.002.005-.004.014-.002.005-.008.022v.005l-.004.009-.004.01-.004.012-.004.009-.002.003a2.38 2.38 0 0 1-.071.166h5.216a2.35 2.35 0 0 1-.07-.166l-.003-.004-.004-.009-.008-.021-.003-.01-.001-.004-.008-.022-.002-.005-.002-.008-.002-.006-.002-.005a3.506 3.506 0 0 0-.057-.166 1.126 1.126 0 0 0-.975-.712 3.82 3.82 0 0 0-.194-.002H7.724c-.13 0-.166 0-.195.002Z" fill="#CBA288"/></svg><svg id="chart" viewBox="0 0 24 24" fill="none"><path fill-rule="evenodd" clip-rule="evenodd" d="M1.757 1.757C0 3.515 0 6.343 0 12s0 8.485 1.757 10.243C3.515 24 6.343 24 12 24s8.485 0 10.243-1.757C24 20.485 24 17.657 24 12s0-8.485-1.757-10.243C20.485 0 17.657 0 12 0S3.515 0 1.757 1.757ZM14.1 9.6a.9.9 0 0 0 .9.9h.827l-2.415 2.415a.3.3 0 0 1-.424 0l-1.903-1.903a2.1 2.1 0 0 0-2.97 0l-2.751 2.752a.9.9 0 0 0 1.272 1.272l2.752-2.751a.3.3 0 0 1 .424 0l1.903 1.903a2.1 2.1 0 0 0 2.97 0l2.415-2.415v.827a.9.9 0 1 0 1.8 0v-3a.9.9 0 0 0-.9-.9h-3a.9.9 0 0 0-.9.9Z" fill="#fff"/></svg><svg id="chat" viewBox="0 0 20 19" fill="none"><path d="M18.462 0H1.538C1.13 0 .74.166.451.463A1.597 1.597 0 0 0 0 1.58v12.638c0 .419.162.82.45 1.117.29.296.68.462 1.088.462H7.26l1.423 2.44c.137.232.33.425.56.559a1.507 1.507 0 0 0 1.513 0 1.56 1.56 0 0 0 .561-.56l1.423-2.439h5.722c.408 0 .799-.166 1.087-.462A1.6 1.6 0 0 0 20 14.218V1.58a1.6 1.6 0 0 0-.45-1.117A1.518 1.518 0 0 0 18.461 0ZM5.385 9.084a1.13 1.13 0 0 1-.641-.2 1.179 1.179 0 0 1-.425-.532 1.214 1.214 0 0 1 .25-1.291 1.126 1.126 0 0 1 1.257-.257c.211.09.391.242.518.437a1.208 1.208 0 0 1-.143 1.496 1.14 1.14 0 0 1-.816.347Zm4.615 0c-.228 0-.451-.07-.641-.2a1.179 1.179 0 0 1-.425-.532 1.214 1.214 0 0 1 .25-1.291 1.126 1.126 0 0 1 1.257-.257c.211.09.392.242.518.437a1.207 1.207 0 0 1-.143 1.496 1.14 1.14 0 0 1-.816.347Zm4.615 0c-.228 0-.45-.07-.64-.2a1.179 1.179 0 0 1-.426-.532 1.214 1.214 0 0 1 .25-1.291 1.14 1.14 0 0 1 1.258-.257c.21.09.391.242.518.437a1.207 1.207 0 0 1-.144 1.496 1.14 1.14 0 0 1-.816.347Z" fill="#fff"/></svg><svg id="check" viewBox="0 0 22 22" fill="none"><path fill-rule="evenodd" clip-rule="evenodd" d="M20.15 21.006a2.094 2.094 0 0 0-2.687 0c-.766.65-1.92.65-2.686 0a2.094 2.094 0 0 0-2.687 0c-.766.65-1.92.65-2.687 0a2.094 2.094 0 0 0-2.686 0c-.766.65-1.92.65-2.687 0a2.094 2.094 0 0 0-2.687 0C.823 21.448 0 21.095 0 20.43V1.063C0 .4.823.046 1.343.488c.766.65 1.92.65 2.687 0 .766-.65 1.92-.65 2.687 0 .766.65 1.92.65 2.686 0s1.921-.65 2.687 0c.766.65 1.92.65 2.687 0 .766-.65 1.92-.65 2.686 0 .767.65 1.921.65 2.687 0 .52-.442 1.344-.09 1.344.575V20.43c0 .665-.823 1.018-1.344.576ZM4.478 10.746c0-.494.4-.895.895-.895H16.12a.896.896 0 1 1 0 1.791H5.373a.896.896 0 0 1-.895-.895Zm.895-5.074a.896.896 0 1 0 0 1.791H16.12a.896.896 0 1 0 0-1.791H5.373Zm-.895 9.254c0-.495.4-.896.895-.896H16.12a.896.896 0 1 1 0 1.792H5.373a.896.896 0 0 1-.895-.896Z" fill="#fff"/></svg><svg id="checkbox" viewBox="0 0 12 12" fill="none"><rect width="12" height="12" rx="2" fill="#fff"/><path d="m4.736 7.409 4.385-3.775a.538.538 0 0 1 .362-.134.54.54 0 0 1 .362.134.407.407 0 0 1 .155.317.405.405 0 0 1-.155.317L5.098 8.366a.538.538 0 0 1-.362.134.538.538 0 0 1-.362-.134L2.149 6.451A.387.387 0 0 1 2 6.134a.427.427 0 0 1 .162-.318.545.545 0 0 1 .369-.133.55.55 0 0 1 .368.133L4.736 7.41Z" fill="#8EAE95"/></svg><svg id="checkbox-green" viewBox="0 0 12 12" fill="none" xmlns="http://www.w3.org/2000/svg"><rect width="12" height="12" rx="2" fill="#73947A"/><path d="m4.736 7.409 4.385-3.775a.538.538 0 0 1 .362-.134.54.54 0 0 1 .362.134.407.407 0 0 1 .155.317.405.405 0 0 1-.155.317L5.098 8.366a.538.538 0 0 1-.362.134.538.538 0 0 1-.362-.134L2.149 6.451A.387.387 0 0 1 2 6.134a.427.427 0 0 1 .162-.318.545.545 0 0 1 .369-.133.55.55 0 0 1 .368.133L4.736 7.41Z" fill="#fff"/></svg><svg id="city" viewBox="0 0 18 20"><path fill-rule="evenodd" clip-rule="evenodd" d="M9 0C4.014 0 0 4.114 0 9.154c0 2.502.988 5.183 2.569 7.243C4.146 18.452 6.406 20 9 20s4.854-1.548 6.431-3.603c1.58-2.06 2.569-4.74 2.569-7.243C18 4.114 13.986 0 9 0ZM5.811 8.462A3.184 3.184 0 0 1 9 5.282a3.184 3.184 0 0 1 3.189 3.18A3.184 3.184 0 0 1 9 11.64a3.184 3.184 0 0 1-3.189-3.18ZM9 6.512c-1.08 0-1.954.873-1.954 1.95 0 1.076.875 1.948 1.954 1.948a1.95 1.95 0 0 0 1.954-1.948A1.952 1.952 0 0 0 9 6.512Z"/></svg><svg id="clock" viewBox="0 0 24 24" fill="none"><path d="M0 12C0 6.343 0 3.515 1.757 1.757 3.515 0 6.343 0 12 0s8.485 0 10.243 1.757C24 3.515 24 6.343 24 12s0 8.485-1.757 10.243C20.485 24 17.657 24 12 24s-8.485 0-10.243-1.757C0 20.485 0 17.657 0 12Z" fill="#fff"/><path fill-rule="evenodd" clip-rule="evenodd" d="M12 6.3a.9.9 0 0 1 .9.9v4.427l2.736 2.737a.9.9 0 1 1-1.272 1.272l-3-3A.9.9 0 0 1 11.1 12V7.2a.9.9 0 0 1 .9-.9Z" fill="#73947A"/></svg><svg id="clock-round" viewBox="0 0 17 17" fill="none" xmlns="http://www.w3.org/2000/svg"><path d="M17 8.5a8.5 8.5 0 1 1-17 0 8.5 8.5 0 0 1 17 0Z" fill="#CBA288"/><path fill-rule="evenodd" clip-rule="evenodd" d="M8.5 4.463c.352 0 .637.285.637.637v3.136l1.939 1.938a.638.638 0 0 1-.902.902L8.05 8.95a.638.638 0 0 1-.186-.451V5.1c0-.352.285-.637.637-.637Z" fill="#fff"/></svg><svg id="couch" viewBox="0 0 24 18" fill="none"><path d="M6 8.4v1.2h12V8.4a3.6 3.6 0 0 1 3.592-3.6 5.503 5.503 0 0 0-.084-.936A4.8 4.8 0 0 0 17.737.092C17.273 0 16.716 0 15.6 0H8.4C7.285 0 6.728 0 6.264.092a4.8 4.8 0 0 0-3.771 3.772 5.506 5.506 0 0 0-.084.936A3.6 3.6 0 0 1 6 8.4Z" fill="#fff"/><path d="M19.733 15.6H4.267c-.333 0-.656-.038-.967-.11v1.31a.9.9 0 1 1-1.8 0v-2.219A4.257 4.257 0 0 1 0 11.334V8.4a2.4 2.4 0 0 1 4.8 0v1.44c0 .53.43.96.96.96h12.48c.53 0 .96-.43.96-.96V8.4a2.4 2.4 0 1 1 4.8 0v2.933a4.255 4.255 0 0 1-1.5 3.248V16.8a.9.9 0 1 1-1.8 0v-1.31c-.31.072-.634.11-.967.11Z" fill="#fff"/></svg><svg id="date" viewBox="0 0 16 16" fill="none"><path d="M4.6.593A.596.596 0 0 0 4 0c-.331 0-.6.265-.6.593V1.84c-1.151.091-1.907.315-2.463.863C.382 3.252.156 4 .063 5.136h15.874c-.093-1.137-.319-1.884-.874-2.433-.556-.548-1.312-.772-2.463-.863V.593A.596.596 0 0 0 12 0c-.331 0-.6.265-.6.593v1.195c-.532-.01-1.129-.01-1.8-.01H6.4c-.671 0-1.268 0-1.8.01V.593Z" fill="#CBA288"/><path fill-rule="evenodd" clip-rule="evenodd" d="M0 8.099c0-.663 0-1.252.01-1.778h15.98c.01.526.01 1.115.01 1.778v1.58c0 2.98 0 4.47-.937 5.395C14.125 16 12.617 16 9.6 16H6.4c-3.017 0-4.525 0-5.463-.926C0 14.15 0 12.66 0 9.68V8.1Zm12 1.58c.442 0 .8-.354.8-.79a.795.795 0 0 0-.8-.79c-.442 0-.8.354-.8.79 0 .436.358.79.8.79Zm0 3.16c.442 0 .8-.353.8-.79a.795.795 0 0 0-.8-.79c-.442 0-.8.354-.8.79 0 .437.358.79.8.79ZM8.8 8.89c0 .436-.358.79-.8.79a.795.795 0 0 1-.8-.79c0-.436.358-.79.8-.79.442 0 .8.354.8.79Zm0 3.16c0 .437-.358.79-.8.79a.795.795 0 0 1-.8-.79c0-.436.358-.79.8-.79.442 0 .8.354.8.79ZM4 9.68c.442 0 .8-.354.8-.79A.795.795 0 0 0 4 8.1c-.442 0-.8.354-.8.79 0 .436.358.79.8.79Zm0 3.16c.442 0 .8-.353.8-.79a.795.795 0 0 0-.8-.79c-.442 0-.8.354-.8.79 0 .437.358.79.8.79Z" fill="#CBA288"/></svg><svg id="dote" width="16" height="16" viewBox="0 0 16 16" fill="none"><circle cx="8" cy="8" r="7.5" stroke="#74947A"/><circle cx="8" cy="8" r="5" fill="#74947A"/></svg><svg id="down" width="14" height="8" viewBox="0 0 14 8" fill="none" xmlns="http://www.w3.org/2000/svg"><path d="m.75.75 6 6 6-6" stroke="#74947A" stroke-width="1.5" stroke-linecap="round" stroke-linejoin="round"/></svg><svg id="email" viewBox="0 0 22 20" fill="none"><path d="M22 3.333c0 1.841-1.477 3.334-3.3 3.334-1.822 0-3.3-1.493-3.3-3.334C15.4 1.493 16.878 0 18.7 0 20.523 0 22 1.492 22 3.333Z" fill="#fff"/><path fill-rule="evenodd" clip-rule="evenodd" d="M13.2 2.222H8.8c-4.148 0-6.223 0-7.511 1.302C0 4.826 0 6.921 0 11.111c0 4.19 0 6.285 1.289 7.587C2.577 20 4.652 20 8.8 20h4.4c4.148 0 6.223 0 7.511-1.302C22 17.396 22 15.301 22 11.111c0-1.615 0-2.918-.074-3.985A4.902 4.902 0 0 1 18.7 8.333a4.902 4.902 0 0 1-1.51-.237l-1.478 1.245c-.975.82-1.765 1.486-2.463 1.939-.726.472-1.434.77-2.249.77-.815 0-1.523-.298-2.25-.77-.697-.453-1.487-1.119-2.462-1.94L3.872 7.308a.84.84 0 0 1-.106-1.174.82.82 0 0 1 1.162-.107l2.375 2c1.026.863 1.739 1.461 2.34 1.852.582.378.977.505 1.357.505s.774-.127 1.357-.505c.601-.39 1.314-.989 2.34-1.853l.924-.777a5.01 5.01 0 0 1-1.871-3.915c0-.381.042-.753.123-1.11H13.2Z" fill="#fff"/></svg><svg id="error" width="52" height="52" viewBox="0 0 52 52" fill="none"><rect width="52" height="52" rx="26" fill="#fff"/><path d="M34 18 18 34m0-16 16 16" stroke="#90AF97" stroke-width="2" stroke-linecap="round"/></svg><svg id="expert" viewBox="0 0 20 27" fill="none"><circle cx="9.333" cy="5.333" fill="#fff" r="5.333"/><path fill-rule="evenodd" clip-rule="evenodd" d="M15.333 26.667c-2.2 0-3.3 0-3.984-.684-.683-.683-.683-1.783-.683-3.983s0-3.3.683-3.983c.684-.684 1.784-.684 3.984-.684s3.3 0 3.983.684C20 18.7 20 19.8 20 22s0 3.3-.684 3.983c-.683.684-1.783.684-3.983.684Zm2.624-5.673a.778.778 0 0 0-1.1-1.1l-2.561 2.562-.487-.488a.778.778 0 0 0-1.1 1.1l1.037 1.037a.778.778 0 0 0 1.1 0l3.11-3.11Z" fill="#fff"/><path d="M13.887 15.343c-1.347-.43-2.9-.676-4.553-.676C4.179 14.667 0 17.055 0 20c0 2.854 3.923 5.185 8.856 5.326a6.485 6.485 0 0 1-.086-.5c-.103-.77-.103-1.71-.103-2.711v-.23c0-1 0-1.942.103-2.712.115-.857.39-1.795 1.166-2.57.775-.776 1.714-1.051 2.57-1.166.417-.056.883-.082 1.38-.094Z" fill="#fff"/></svg><svg id="eye" width="20" height="16" viewBox="0 0 20 16" fill="none"><path d="M1.897 10.916C1.132 9.922.75 9.426.75 7.95c0-1.475.382-1.972 1.147-2.966C3.425 3 5.987.75 9.75.75c3.764 0 6.325 2.25 7.853 4.234.764.994 1.147 1.49 1.147 2.966 0 1.475-.383 1.972-1.147 2.966-1.528 1.984-4.09 4.234-7.853 4.234-3.764 0-6.325-2.25-7.853-4.234Z" stroke="#fff" stroke-width="1.5"/><path d="M12.45 7.95a2.7 2.7 0 1 1-5.4 0 2.7 2.7 0 0 1 5.4 0Z" stroke="#fff" stroke-width="1.5"/></svg><svg id="file" width="24" height="24" viewBox="0 0 24 24" fill="none" xmlns="http://www.w3.org/2000/svg"><path d="m20.822 6.74-4.75-4.276C14.718 1.247 14.042.638 13.212.32L13.2 3.6c0 2.829 0 4.243.879 5.121.878.88 2.293.88 5.121.88h4.296c-.435-.846-1.214-1.547-2.674-2.861Z" fill="#CCA288"/><path fill-rule="evenodd" clip-rule="evenodd" d="M9.6 24h4.8c4.525 0 6.788 0 8.194-1.406C24 21.188 24 18.925 24 14.4v-.524c0-1.048 0-1.835-.051-2.476h-4.863c-1.316 0-2.48 0-3.418-.126-1.016-.136-2.033-.45-2.862-1.28-.83-.83-1.143-1.846-1.28-2.862-.126-.938-.126-2.102-.126-3.418l.011-3.401a1.8 1.8 0 0 1 .025-.293C10.946 0 10.363 0 9.636 0c-4.55 0-6.824 0-8.23 1.406C0 2.812 0 5.075 0 9.6v4.8c0 4.525 0 6.788 1.406 8.194C2.812 24 5.075 24 9.6 24ZM8.416 13.143a.9.9 0 0 0-1.232 0l-2.4 2.25a.9.9 0 1 0 1.232 1.314l.884-.83V19.8a.9.9 0 1 0 1.8 0v-3.923l.884.83a.9.9 0 0 0 1.232-1.314l-2.4-2.25Z" fill="#CCA288"/></svg><svg id="list" viewBox="0 0 16 16" fill="none"><circle cx="8" cy="8" r="8" transform="rotate(90 8 8)" fill="#74947A"/><circle cx="8" cy="8" r="3" transform="rotate(90 8 8)" fill="#fff"/></svg><svg id="list-inverse" viewBox="0 0 14 14" fill="none" xmlns="http://www.w3.org/2000/svg"><circle cx="7" cy="7" transform="rotate(90 7 7)" fill="#fff" r="7"/><circle cx="7" cy="7" r="3" transform="rotate(90 7 7)" fill="#73947A"/></svg><svg id="list-red" viewBox="0 0 16 16" fill="none" xmlns="http://www.w3.org/2000/svg"><circle cx="8" cy="8" r="8" transform="rotate(90 8 8)" fill="#BC3333"/><circle cx="8" cy="8" r="3" transform="rotate(90 8 8)" fill="#fff"/></svg><svg id="logo" viewBox="0 0 38 38" fill="none"><path fill-rule="evenodd" clip-rule="evenodd" d="M11.122 0h.377c3.121 0 5.675 2.622 5.675 5.831v11.825H5.45V5.83C5.45 2.622 8.003 0 11.122 0Z" fill="#73947A" fill-opacity=".8"/><path fill-rule="evenodd" clip-rule="evenodd" d="M0 12.093v-.368c0-3.06 2.431-5.562 5.408-5.562l11.767 11.493H5.408C2.43 17.656 0 15.153 0 12.093Z" fill="#74947A"/><path fill-rule="evenodd" clip-rule="evenodd" d="M26.877 0H26.5c-3.122 0-5.676 2.622-5.676 5.831v11.825H32.55V5.83c0-3.208-2.554-5.83-5.673-5.83Z" fill="#73947A" fill-opacity=".8"/><path fill-rule="evenodd" clip-rule="evenodd" d="M38 12.093v-.368c0-3.06-2.432-5.562-5.409-5.562L20.824 17.656h11.767c2.977 0 5.408-2.503 5.408-5.563Z" fill="#74947A"/><path fill-rule="evenodd" clip-rule="evenodd" d="M11.122 38h.377c3.121 0 5.675-2.625 5.675-5.831V20.344H5.45V32.17c0 3.205 2.553 5.83 5.672 5.83Z" fill="#73947A" fill-opacity=".8"/><path fill-rule="evenodd" clip-rule="evenodd" d="M0 25.903v.372c0 3.056 2.431 5.559 5.408 5.559l11.767-11.49H5.408C2.43 20.344 0 22.847 0 25.904Z" fill="#74947A"/><path fill-rule="evenodd" clip-rule="evenodd" d="M26.877 38H26.5c-3.122 0-5.676-2.625-5.676-5.831V20.344H32.55V32.17c0 3.206-2.554 5.831-5.673 5.831Z" fill="#73947A" fill-opacity=".8"/><path fill-rule="evenodd" clip-rule="evenodd" d="M38 25.904v.37c0 3.057-2.432 5.56-5.409 5.56l-11.767-11.49h11.767c2.977 0 5.408 2.503 5.408 5.56Z" fill="#74947A"/></svg><svg id="medal" viewBox="0 0 24 23" fill="none"><path fill-rule="evenodd" clip-rule="evenodd" d="M12 16.8A8.4 8.4 0 1 0 12 0a8.4 8.4 0 0 0 0 16.8Zm0-12c-.341 0-.57.409-1.025 1.227l-.118.212c-.13.232-.195.348-.296.425-.1.077-.226.105-.478.162l-.23.052c-.885.2-1.327.3-1.433.64-.105.338.197.69.8 1.397l.157.182c.171.201.257.301.296.425.038.124.025.258 0 .526l-.024.244c-.092.941-.137 1.412.138 1.622.276.209.69.018 1.52-.364l.214-.098c.236-.109.354-.163.479-.163.124 0 .242.054.478.163l.214.098c.83.382 1.244.573 1.52.364.276-.21.23-.68.139-1.622l-.024-.244c-.026-.268-.039-.402 0-.526.038-.124.124-.224.296-.425l.156-.182c.603-.706.905-1.06.8-1.398-.105-.339-.548-.439-1.434-.64l-.229-.05c-.251-.058-.377-.086-.478-.163-.101-.077-.166-.193-.296-.425l-.117-.212C12.567 5.209 12.34 4.8 12 4.8Z" fill="#fff"/><path d="M2.994 13.193 1.19 15.061c-.648.67-.972 1.006-1.084 1.29-.255.648-.037 1.366.52 1.707.244.15.684.196 1.565.289.497.053.746.079.954.159a1.72 1.72 0 0 1 1.002 1.037c.077.215.102.473.153.988.09.912.135 1.368.28 1.62.329.577 1.022.803 1.648.539.274-.117.598-.452 1.246-1.123l2.979-3.084a10.21 10.21 0 0 1-7.459-5.29Zm10.553 5.29 2.979 3.084c.648.67.972 1.006 1.246 1.123.626.264 1.32.038 1.649-.538.144-.253.189-.71.279-1.621.05-.515.076-.773.153-.988a1.72 1.72 0 0 1 1.002-1.037c.208-.08.457-.106.954-.159.88-.093 1.321-.14 1.565-.29.557-.34.775-1.058.52-1.706-.112-.284-.436-.62-1.084-1.29l-1.804-1.868a10.21 10.21 0 0 1-7.459 5.29Z" fill="#fff"/></svg><svg id="ok" width="52" height="52" viewBox="0 0 52 52" fill="none"><rect width="52" height="52" rx="26" fill="#fff"/><path d="m16 27.4 5.714 5.6L36 19" stroke="#8BAB92" stroke-width="2" stroke-linecap="round" stroke-linejoin="round"/></svg><svg id="open" width="16" height="16" viewBox="0 0 16 16" fill="none"><path d="M1 8h7m0 0h7M8 8v7m0-7V1" stroke="#fff" stroke-width="2" stroke-linecap="round"/></svg><svg id="pay-card" viewBox="0 0 30 24"><path d="M18 0h-6C6.343 0 3.515 0 1.757 1.757.492 3.023.137 4.843.04 7.875h29.92c-.099-3.032-.453-4.852-1.718-6.118C26.485 0 23.657 0 18 0Zm-6 24h6c5.657 0 8.485 0 10.243-1.757C30 20.485 30 17.657 30 12c0-.663 0-1.287-.003-1.875H.003C0 10.713 0 11.337 0 12c0 5.657 0 8.485 1.757 10.243C3.515 24 6.343 24 12 24Z"/><path fill-rule="evenodd" clip-rule="evenodd" d="M4.875 18c0-.621.504-1.125 1.125-1.125h6a1.125 1.125 0 0 1 0 2.25H6A1.125 1.125 0 0 1 4.875 18Zm9.75 0c0-.621.504-1.125 1.125-1.125H18a1.125 1.125 0 0 1 0 2.25h-2.25A1.125 1.125 0 0 1 14.625 18Z"/></svg><svg id="pay-cash" viewBox="0 0 30 30"><path fill-rule="evenodd" clip-rule="evenodd" d="M27.616 11.79c-.082-.004-.171-.004-.264-.004h-3.65c-2.99 0-5.547 2.371-5.547 5.464 0 3.093 2.558 5.464 5.547 5.464h3.65c.093 0 .182 0 .264-.005a2.547 2.547 0 0 0 2.378-2.372c.006-.088.006-.183.006-.27v-5.634c0-.087 0-.182-.006-.27a2.547 2.547 0 0 0-2.378-2.372Zm-4.235 6.917c.77 0 1.393-.652 1.393-1.457s-.624-1.457-1.393-1.457c-.77 0-1.394.652-1.394 1.457s.624 1.457 1.394 1.457Z"/><path fill-rule="evenodd" clip-rule="evenodd" d="M27.351 24.9a.32.32 0 0 1 .32.405c-.29 1.038-.75 1.923-1.49 2.668-1.082 1.09-2.454 1.574-4.149 1.804-1.647.223-3.751.223-6.408.223h-3.055c-2.657 0-4.761 0-6.409-.223-1.695-.23-3.067-.714-4.149-1.804C.93 26.883.45 25.5.221 23.79 0 22.131 0 20.011 0 17.332v-.164c0-2.678 0-4.8.221-6.46C.45 9 .93 7.619 2.011 6.529c1.082-1.091 2.454-1.575 4.15-1.805C7.807 4.5 9.911 4.5 12.568 4.5h3.055c2.657 0 4.761 0 6.408.223 1.695.23 3.067.714 4.15 1.804.739.745 1.2 1.63 1.49 2.668a.32.32 0 0 1-.32.405h-3.65c-4.101 0-7.716 3.265-7.716 7.65s3.615 7.65 7.716 7.65h3.65ZM5.421 10.329c-.598 0-1.084.489-1.084 1.092 0 .604.486 1.093 1.085 1.093h5.783c.599 0 1.084-.489 1.084-1.093 0-.603-.485-1.092-1.084-1.092H5.422Z"/><path d="M8.665 3.037 11.603.872a4.453 4.453 0 0 1 5.294 0l2.953 2.176C18.615 3 17.236 3 15.724 3H12.47c-1.382 0-2.653 0-3.804.037Z"/></svg><svg id="pay-qr" viewBox="0 0 28 28"><path d="M1.003.05C.663.155.361.39.177.692L0 .999v10.603l.164.295c.092.157.295.38.446.49l.288.197 5.253.02c3.705.013 5.331 0 5.508-.053.138-.039.367-.176.505-.3.485-.44.466-.151.446-6.061L12.59.914l-.197-.288a1.983 1.983 0 0 0-.491-.445l-.295-.163L6.393.004C3.528-.002 1.102.018 1.003.05Zm6.38 4.261c.342.105.709.419.853.74.098.222.125.432.125 1.25 0 1.086-.066 1.342-.433 1.682-.348.327-.59.38-1.646.38-1.115 0-1.364-.072-1.705-.491-.302-.36-.36-.675-.334-1.709.02-.85.032-.929.196-1.217.184-.301.486-.537.827-.641.268-.085 1.836-.079 2.118.006ZM16.348.076c-.374.131-.557.275-.76.576l-.178.275-.02 5.27c-.02 5.896-.039 5.615.446 6.053.138.125.368.262.505.301.177.053 1.804.066 5.509.053l5.252-.02.289-.196a2 2 0 0 0 .446-.491l.163-.295V1l-.183-.307A1.358 1.358 0 0 0 27.325.2l-.308-.183-5.213-.014c-4.236-.013-5.26 0-5.456.072Zm6.715 4.38c.203.117.373.287.492.49.17.288.183.36.203 1.217.026 1.035-.033 1.349-.335 1.709-.34.419-.59.49-1.704.49-1.056 0-1.299-.052-1.646-.38-.368-.34-.433-.595-.433-1.681 0-1.126.078-1.388.485-1.708.393-.315.577-.354 1.646-.334.944.013.997.02 1.292.196ZM.885 15.44c-.288.117-.59.386-.74.667L0 16.382v10.603l.184.308c.118.203.288.373.491.49l.309.184h10.623l.295-.164c.157-.091.38-.294.492-.445l.196-.288.02-5.242c.013-3.666 0-5.322-.053-5.498-.091-.321-.426-.694-.754-.838-.249-.111-.57-.124-5.508-.118-3.285 0-5.305.026-5.41.066Zm6.656 4.306c.144.066.341.203.44.308.327.347.38.589.38 1.643 0 1.112-.072 1.361-.492 1.701-.36.302-.676.36-1.712.334-.859-.02-.93-.032-1.22-.203a1.359 1.359 0 0 1-.491-.49c-.17-.289-.184-.36-.203-1.218-.027-1.034.032-1.348.334-1.708.341-.42.59-.491 1.718-.491.82 0 1.03.026 1.246.124Zm8.654-4.261c-.328.15-.662.524-.754.845-.046.157-.065.648-.052 1.309l.02 1.053.196.288c.112.157.335.354.492.445.269.15.38.164 1.2.184l.898.026v1.564c0 1.76.027 1.885.492 2.271.341.282.63.34 1.607.34s1.265-.058 1.606-.34c.479-.392.492-.477.492-2.526V19.11l-.21-.314a1.683 1.683 0 0 0-.479-.465c-.235-.13-.354-.15-1.16-.15h-.892l-.026-.903c-.02-.812-.033-.923-.184-1.192a1.862 1.862 0 0 0-.446-.49l-.288-.197-1.122-.02c-.983-.013-1.16 0-1.39.105Zm6.941.046c-.21.105-.407.269-.518.439-.19.268-.19.275-.21 1.433-.026 1.316.026 1.5.479 1.879.34.281.63.34 1.606.34.977 0 1.266-.059 1.607-.34.452-.38.505-.563.478-1.879-.02-1.158-.02-1.165-.21-1.433a1.371 1.371 0 0 0-.517-.439c-.315-.157-.394-.163-1.358-.163-.964 0-1.042.006-1.357.163Zm-6.941 8.332c-.328.15-.662.524-.754.844-.046.157-.065.648-.052 1.31l.02 1.053.196.288c.112.157.335.354.492.445.282.157.34.164 1.41.164 1.213 0 1.318-.026 1.698-.4.374-.379.4-.484.4-1.695 0-1.066-.006-1.125-.164-1.407a1.862 1.862 0 0 0-.446-.49l-.288-.197-1.122-.02c-.983-.013-1.16 0-1.39.105Zm6.941.047c-.21.104-.407.268-.518.438-.19.268-.19.275-.21 1.433-.026 1.316.026 1.5.479 1.879.34.281.63.34 1.606.34.977 0 1.266-.059 1.607-.34.452-.38.505-.563.478-1.879-.02-1.158-.02-1.165-.21-1.433a1.371 1.371 0 0 0-.517-.439c-.315-.157-.394-.163-1.358-.163-.964 0-1.042.006-1.357.163Z"/></svg><svg id="pay-transfer" viewBox="0 0 30 26"><path d="M11.566 0h5.783c5.453 0 8.179 0 9.873 1.819 1.22 1.309 1.56 3.193 1.656 6.33H.038c.095-3.137.436-5.021 1.656-6.33C3.388 0 6.114 0 11.566 0Z"/><path fill-rule="evenodd" clip-rule="evenodd" d="m28.915 13.687-.59-.634c-1.271-1.364-3.33-1.364-4.601 0l-1.159 1.244c-.462-1.325-1.652-2.267-3.047-2.267-1.797 0-3.253 1.564-3.253 3.492v2.738a3.154 3.154 0 0 0-1.939 1.002c-1.27 1.364-1.27 3.575 0 4.939l.592.635h-3.352c-5.452 0-8.178 0-9.872-1.819C0 21.2 0 18.272 0 12.417c0-.685 0-1.33.003-1.94h28.91c.003.61.003 1.255.003 1.94l-.001 1.27ZM5.783 17.463c-.599 0-1.084.52-1.084 1.164 0 .643.485 1.164 1.084 1.164h5.783c.6 0 1.085-.521 1.085-1.164 0-.643-.486-1.164-1.085-1.164H5.783Z"/><path fill-rule="evenodd" clip-rule="evenodd" d="M19.518 14.358c.599 0 1.084.521 1.084 1.164v6.503l1.04-1.117a1.033 1.033 0 0 1 1.534 0 1.226 1.226 0 0 1 0 1.646l-2.891 3.105a1.032 1.032 0 0 1-1.534 0l-2.891-3.104a1.226 1.226 0 0 1 0-1.647 1.033 1.033 0 0 1 1.533 0l1.04 1.117v-6.503c0-.643.486-1.164 1.085-1.164Zm5.74.341a1.032 1.032 0 0 1 1.533 0l2.891 3.105a1.226 1.226 0 0 1 0 1.646 1.033 1.033 0 0 1-1.533 0l-1.04-1.117v6.503c0 .643-.486 1.164-1.085 1.164s-1.084-.521-1.084-1.164v-6.503L23.9 19.45a1.033 1.033 0 0 1-1.534 0 1.226 1.226 0 0 1 0-1.646l2.891-3.105Z"/></svg><svg id="phone" viewBox="0 0 20 18" fill="none"><path d="m13.951 11.548-.506.48s-1.203 1.139-4.486-1.972c-3.283-3.111-2.08-4.25-2.08-4.25l.318-.303c.785-.744.86-1.938.174-2.81L5.971.91C5.122-.17 3.483-.312 2.512.609L.769 2.26c-.482.458-.805 1.05-.766 1.706.1 1.68.898 5.293 5.347 9.51 4.719 4.47 9.146 4.648 10.957 4.487.573-.05 1.07-.329 1.472-.709l1.578-1.496c1.066-1.01.765-2.74-.598-3.446l-2.123-1.1c-.895-.463-1.985-.327-2.685.336Z" fill="#fff"/></svg><svg id="popup-close" width="14" height="14" viewBox="0 0 14 14" fill="none"><path d="M13 1 1 13m12 0L1 1" stroke-width="2" stroke-linecap="round" opacity=".6"/></svg><svg id="profile" viewBox="0 0 24 24" fill="none"><path fill-rule="evenodd" clip-rule="evenodd" d="M24 12c0 6.627-5.373 12-12 12S0 18.627 0 12 5.373 0 12 0s12 5.373 12 12Zm-8.4-3.6a3.6 3.6 0 1 1-7.2 0 3.6 3.6 0 0 1 7.2 0ZM12 22.2c2.14 0 4.128-.66 5.768-1.787.725-.497 1.035-1.445.613-2.217-.873-1.6-2.673-2.596-6.381-2.596s-5.508.996-6.381 2.596c-.422.771-.112 1.72.613 2.217A10.153 10.153 0 0 0 12 22.2Z" fill="#EEF3EE"/></svg><svg id="quote" width="24" height="20" viewBox="0 0 24 20" fill="none"><path opacity=".5" d="M4.094 20 .562 17.19c.963-1.047 1.739-2.039 2.328-2.975a10.407 10.407 0 0 0 1.284-2.975c.267-.992.401-2.066.401-3.223l2.248 1.818H0V0h9.632v6.694c0 1.763-.214 3.389-.642 4.876a16.289 16.289 0 0 1-1.766 4.38c-.75 1.378-1.793 2.728-3.13 4.05Zm14.367 0-3.531-2.81c.963-1.047 1.739-2.039 2.328-2.975a10.403 10.403 0 0 0 1.284-2.975c.267-.992.401-2.066.401-3.223l2.248 1.818h-6.823V0H24v6.694c0 1.763-.214 3.389-.642 4.876a16.292 16.292 0 0 1-1.766 4.38c-.75 1.378-1.793 2.728-3.13 4.05Z" fill="#fff"/></svg><svg id="ring" viewBox="0 0 22 24" fill="none"><path d="M6.541 21.89A5.697 5.697 0 0 0 11 24c1.816 0 3.43-.827 4.459-2.11a33.79 33.79 0 0 1-8.918 0Z" fill="#fff"/><path fill-rule="evenodd" clip-rule="evenodd" d="M19.249 9.245V8.4C19.249 3.76 15.556 0 11 0 6.444 0 2.751 3.76 2.751 8.4v.845a5.203 5.203 0 0 1-.847 2.849L.55 14.16c-1.236 1.889-.292 4.456 1.858 5.053a32.088 32.088 0 0 0 17.184 0c2.15-.597 3.094-3.164 1.858-5.053l-1.354-2.067a5.204 5.204 0 0 1-.847-2.85ZM11 3.9c.506 0 .917.403.917.9v4.8c0 .497-.41.9-.917.9a.908.908 0 0 1-.917-.9V4.8c0-.497.41-.9.917-.9Z" fill="#fff"/></svg><svg id="rocket" viewBox="0 0 24 24" fill="none"><path d="M8.441 4.756 5.39 7.798c-.56.56-1.075 1.072-1.482 1.536a7.297 7.297 0 0 0-.742.984l-.03-.03-.113-.111A5.829 5.829 0 0 0 1.184 8.97l-.148-.06-.455-.18a.917.917 0 0 1-.31-1.503c1.343-1.34 2.957-2.949 3.736-3.272a4.056 4.056 0 0 1 2.145-.274c.656.097 1.276.434 2.29 1.074Zm5.211 16.02c.246.25.41.425.557.614.195.248.369.512.52.79.172.311.304.644.57 1.31.216.542.934.685 1.35.27l.101-.101c1.344-1.34 2.958-2.95 3.282-3.726a4.021 4.021 0 0 0 .275-2.139c-.097-.653-.435-1.272-1.076-2.281l-3.062 3.052c-.574.572-1.1 1.097-1.576 1.508a7.225 7.225 0 0 1-.941.703Z" fill="#fff"/><path fill-rule="evenodd" clip-rule="evenodd" d="m14.936 17.252 7.016-6.995c1.01-1.007 1.516-1.511 1.782-2.152C24 7.465 24 6.753 24 5.328v-.68c0-2.191 0-3.287-.683-3.967C22.635 0 21.537 0 19.34 0h-.683c-1.429 0-2.143 0-2.786.265-.642.266-1.147.77-2.158 1.777L6.696 9.037c-1.18 1.177-1.913 1.907-2.196 2.612a1.77 1.77 0 0 0-.135.674c0 .963.777 1.737 2.33 3.286l.21.208 2.446-2.482a.9.9 0 0 1 1.282 1.263l-2.454 2.49.165.164c1.554 1.55 2.33 2.324 3.296 2.324.213 0 .417-.038.623-.114.723-.266 1.463-1.003 2.673-2.21Zm3.296-8.215a2.336 2.336 0 0 1-3.296 0 2.319 2.319 0 0 1 0-3.286 2.336 2.336 0 0 1 3.296 0c.91.908.91 2.379 0 3.286Z" fill="#fff"/></svg><svg id="scale" width="48" height="48" viewBox="0 0 48 48" fill="none"><rect width="48" height="48" rx="24" fill="#fff"/><path fill-rule="evenodd" clip-rule="evenodd" d="M31.83 31.83a.578.578 0 0 0 0-.817l-2.932-2.933a7.325 7.325 0 1 0-.818.818l2.933 2.933a.578.578 0 0 0 .818 0Zm-8.505-11.01c.32 0 .579.258.579.578v1.349h1.349a.578.578 0 1 1 0 1.157h-1.35v1.349a.578.578 0 1 1-1.156 0v-1.35h-1.35a.578.578 0 1 1 0-1.156h1.35v-1.35c0-.319.259-.578.578-.578Z" fill="#74947A"/></svg><svg id="search" viewBox="0 0 18 18" fill="none"><circle cx="8.35" cy="8.35" r="7.6" stroke="#74947A" stroke-width="1.5"/><path d="m13.95 13.95 2.8 2.8" stroke="#74947A" stroke-width="1.5" stroke-linecap="round"/></svg><svg id="shield" viewBox="0 0 22 24" fill="none"><path fill-rule="evenodd" clip-rule="evenodd" d="M0 10.1c0-3.837 0-5.756.461-6.401.462-.646 2.3-1.263 5.974-2.498l.7-.235C9.051.322 10.008 0 11 0s1.95.322 3.865.966l.7.235c3.675 1.235 5.512 1.852 5.974 2.498C22 4.344 22 6.263 22 10.1v1.89c0 6.765-5.181 10.049-8.432 11.443-.881.378-1.322.567-2.568.567s-1.687-.19-2.568-.567C5.18 22.039 0 18.755 0 11.99V10.1Zm13.444-1.7c0 1.325-1.094 2.4-2.444 2.4-1.35 0-2.444-1.075-2.444-2.4S9.65 6 11 6c1.35 0 2.444 1.075 2.444 2.4ZM11 18c4.889 0 4.889-1.075 4.889-2.4S13.7 13.2 11 13.2s-4.889 1.075-4.889 2.4S6.111 18 11 18Z" fill="#fff"/></svg><svg id="star" viewBox="0 0 16 16" fill="none"><path d="M5.723 2.727C6.736.909 7.243 0 8 0c.757 0 1.264.909 2.277 2.727l.263.47c.288.517.432.775.656.945.225.17.504.234 1.063.36l.51.116c1.967.445 2.951.667 3.185 1.42.234.753-.437 1.537-1.778 3.106l-.347.406c-.381.446-.572.668-.658.944-.085.276-.057.573.001 1.168l.053.541c.202 2.094.304 3.14-.31 3.605-.612.465-1.533.041-3.376-.807l-.476-.22c-.524-.24-.786-.361-1.063-.361-.277 0-.54.12-1.063.361l-.476.22c-1.843.848-2.764 1.272-3.377.807-.613-.465-.511-1.511-.308-3.604l.052-.542c.058-.595.086-.892 0-1.168-.085-.276-.276-.498-.657-.944l-.347-.406C.483 7.575-.188 6.79.046 6.038c.234-.753 1.218-.975 3.186-1.42l.509-.116c.559-.126.838-.19 1.063-.36.224-.17.368-.428.656-.945l.263-.47Z" fill="#E5B95A"/></svg><svg id="tablet" viewBox="0 0 21 24" fill="none"><path d="M7.583 0c-.966 0-1.75.806-1.75 1.8V3c0 .994.784 1.8 1.75 1.8h5.834c.966 0 1.75-.806 1.75-1.8V1.8c0-.994-.784-1.8-1.75-1.8H7.583Z" fill="#fff"/><path fill-rule="evenodd" clip-rule="evenodd" d="M4.083 2.444c-1.467.085-2.394.325-3.058 1.009C0 4.507 0 6.204 0 9.599v7.2c0 3.395 0 5.092 1.025 6.146C2.05 24 3.7 24 7 24h7c3.3 0 4.95 0 5.975-1.055C21 21.892 21 20.194 21 16.8V9.6c0-3.395 0-5.092-1.025-6.146-.664-.684-1.59-.924-3.058-1.009V3c0 1.989-1.567 3.6-3.5 3.6H7.583c-1.933 0-3.5-1.611-3.5-3.6v-.556ZM14.597 12.66a.918.918 0 0 0 .043-1.272.858.858 0 0 0-1.237-.044L9 15.57l-1.403-1.347a.858.858 0 0 0-1.237.044.918.918 0 0 0 .043 1.272l2 1.92a.857.857 0 0 0 1.194 0l5-4.8Z" fill="#fff"/></svg><svg id="talk" viewBox="0 0 24 24" fill="none"><path d="M24 7.8a7.8 7.8 0 0 0-13.952-4.791C16.137 3.244 21 8.254 21 14.4c0 .132-.002.264-.007.396l.399.106a1.56 1.56 0 0 0 1.91-1.91l-.153-.571c-.123-.462-.049-.95.15-1.384.45-.986.701-2.082.701-3.237Z" fill="#fff"/><path fill-rule="evenodd" clip-rule="evenodd" d="M19.2 14.4A9.6 9.6 0 0 1 9.6 24a9.563 9.563 0 0 1-4.14-.936c-.431-.206-.92-.279-1.38-.155l-1.472.393a1.56 1.56 0 0 1-1.91-1.91l.393-1.471c.124-.462.052-.95-.155-1.38A9.562 9.562 0 0 1 0 14.4a9.6 9.6 0 0 1 19.2 0ZM5.4 15.6a1.2 1.2 0 1 0 0-2.4 1.2 1.2 0 0 0 0 2.4Zm4.2 0a1.2 1.2 0 1 0 0-2.4 1.2 1.2 0 0 0 0 2.4Zm4.2 0a1.2 1.2 0 1 0 0-2.4 1.2 1.2 0 0 0 0 2.4Z" fill="#fff"/></svg><svg id="taxi" viewBox="0 0 24 23" fill="none"><path d="M24 10.895V21.79c0 .32-.126.628-.352.855-.224.227-.53.355-.848.355h-1.2c-.318 0-.623-.128-.849-.355a1.216 1.216 0 0 1-.351-.855v-1.211H3.6v1.21c0 .321-.126.63-.351.856-.226.227-.53.355-.849.355H1.2c-.318 0-.623-.128-.849-.355A1.216 1.216 0 0 1 0 21.79V10.895l2.976-7.007c.185-.436.493-.807.886-1.068.392-.26.852-.4 1.322-.399H8.4V0h7.2v2.421h3.217c.47 0 .93.14 1.321.4.392.26.7.632.885 1.067L24 10.895Zm-21.389 0H21.39l-2.572-6.053H5.184l-2.572 6.053ZM5.4 16.947c.477 0 .935-.19 1.273-.531a1.824 1.824 0 0 0 0-2.568 1.792 1.792 0 0 0-2.546 0 1.824 1.824 0 0 0 0 2.568c.338.34.796.531 1.273.531Zm13.2 0c.477 0 .935-.19 1.273-.531a1.824 1.824 0 0 0 0-2.568 1.792 1.792 0 0 0-2.546 0 1.824 1.824 0 0 0 0 2.568c.338.34.796.531 1.273.531Z" fill="#fff"/></svg><svg id="tg" viewBox="0 0 21 19" fill="none"><path d="M21 .673 17.678 18.21s-.465 1.216-1.741.633l-7.665-6.154-.035-.018c1.035-.973 9.063-8.532 9.414-8.874.543-.53.206-.847-.425-.446L5.368 11.236.793 9.624s-.72-.268-.789-.851c-.07-.585.813-.9.813-.9L19.467.21S21-.494 21 .673Z" fill="#fff"/></svg><svg id="time" width="16" height="16" viewBox="0 0 16 16" fill="none"><path d="M16 8A8 8 0 1 1 0 8a8 8 0 0 1 16 0Z" fill="#CBA288"/><path fill-rule="evenodd" clip-rule="evenodd" d="M8 4.2a.6.6 0 0 1 .6.6v2.951l1.824 1.825a.6.6 0 0 1-.848.848l-2-2A.6.6 0 0 1 7.4 8V4.8a.6.6 0 0 1 .6-.6Z" fill="#fff"/></svg><svg id="vk" viewBox="0 0 25 16" fill="none"><path d="M13.617 16C5.075 16 .203 9.994 0 0h4.279c.14 7.335 3.294 10.442 5.793 11.083V0H14.1v6.326c2.468-.272 5.06-3.155 5.934-6.326h4.03a12.367 12.367 0 0 1-1.93 4.574 12.024 12.024 0 0 1-3.552 3.402 12.394 12.394 0 0 1 4.048 3.306A12.772 12.772 0 0 1 25 16h-4.435a7.94 7.94 0 0 0-2.39-3.86 7.624 7.624 0 0 0-4.074-1.858V16h-.485Z" fill="#fff"/></svg><svg id="wa" viewBox="0 0 22 22" fill="none"><path d="M18.78 3.208A10.925 10.925 0 0 0 11.038 0C4.983 0 .077 4.889.077 10.924c0 1.91.536 3.82 1.456 5.423L0 22l5.826-1.528c1.61.84 3.373 1.299 5.212 1.299C17.094 21.77 22 16.88 22 10.847c-.077-2.826-1.15-5.576-3.22-7.639ZM16.328 14.82c-.23.612-1.303 1.223-1.84 1.3a4.302 4.302 0 0 1-1.686-.077c-.383-.153-.92-.306-1.533-.611-2.76-1.146-4.522-3.896-4.676-4.125-.153-.153-1.15-1.452-1.15-2.827s.69-1.986.92-2.291c.23-.306.537-.306.767-.306h.537c.153 0 .383-.076.613.458.23.535.766 1.91.843 1.986a.486.486 0 0 1 0 .459c-.077.152-.153.305-.307.458-.153.153-.306.382-.383.458-.153.153-.307.306-.153.535.153.306.69 1.146 1.533 1.91 1.073.916 1.916 1.222 2.223 1.375.306.153.46.076.613-.077.153-.152.69-.763.843-1.069.154-.306.384-.23.614-.153.23.077 1.61.764 1.84.917.306.153.46.23.536.305.076.23.076.764-.154 1.375Z" fill="#fff"/></svg><svg id="wallet" width="24" height="20" viewBox="0 0 24 20" fill="none"><path fill-rule="evenodd" clip-rule="evenodd" d="M22.093 5.718a3.461 3.461 0 0 0-.211-.004h-2.92c-2.392 0-4.438 1.86-4.438 4.286 0 2.426 2.046 4.286 4.438 4.286h2.92c.074 0 .145 0 .21-.004.972-.06 1.831-.812 1.903-1.861.005-.069.005-.143.005-.212V7.79c0-.068 0-.142-.005-.21-.072-1.05-.931-1.801-1.902-1.862Zm-3.388 5.425c.615 0 1.114-.512 1.114-1.143s-.499-1.143-1.114-1.143c-.616 0-1.115.512-1.115 1.143s.499 1.143 1.115 1.143Z" fill="#fff"/><path fill-rule="evenodd" clip-rule="evenodd" d="M21.881 16a.252.252 0 0 1 .256.317c-.232.815-.6 1.509-1.192 2.093-.866.855-1.963 1.235-3.32 1.415-1.317.175-3 .175-5.126.175h-2.444c-2.125 0-3.809 0-5.127-.175-1.356-.18-2.453-.56-3.319-1.415-.865-.855-1.25-1.94-1.432-3.28C0 13.828 0 12.165 0 10.064v-.128c0-2.1 0-3.764.177-5.066C.36 3.53.744 2.445 1.61 1.59 2.475.735 3.572.355 4.93.175 6.245 0 7.928 0 10.054 0H12.5c2.126 0 3.81 0 5.127.175 1.356.18 2.453.56 3.32 1.415.59.584.959 1.278 1.191 2.092a.253.253 0 0 1-.256.318h-2.92c-3.28 0-6.172 2.561-6.172 6s2.892 6 6.173 6h2.919ZM4.337 4.571a.862.862 0 0 0-.867.858c0 .473.388.857.867.857h4.627a.862.862 0 0 0 .867-.857.862.862 0 0 0-.867-.858H4.337Z" fill="#fff"/></svg></svg>